<svg viewBox="0 0 4.7 8.6" fill="none" xmlns="http://www.w3.org/2000/svg" xmlns:xlink="http://www.w3.org/1999/xlink" x="0" y="0"><path id="Vector" d="M0.5,8.5998c-0.133,0 -0.25,-0.045 -0.35,-0.137c-0.1,-0.091 -0.15,-0.212 -0.15,-0.363v-7.6c0,-0.15 0.05,-0.27 0.15,-0.362c0.1,-0.091 0.217,-0.137 0.35,-0.138c0.033,0 0.15,0.05 0.35,0.15l3.625,3.625c0.083,0.084 0.142,0.167 0.175,0.25c0.033,0.084 0.05,0.175 0.05,0.275c0,0.1 -0.017,0.192 -0.05,0.275c-0.033,0.084 -0.092,0.167 -0.175,0.25l-3.625,3.625c-0.05,0.05 -0.104,0.088 -0.162,0.113c-0.058,0.026 -0.121,0.038 -0.188,0.037z" fill="currentColor"/></svg>