<svg width="24" height="23" viewBox="0 0 24 23" fill="none" xmlns="http://www.w3.org/2000/svg">
<path d="M16.017 1.91602H7.947C6.37015 1.91779 4.85844 2.51894 3.74353 3.58758C2.62862 4.65621 2.00159 6.10504 2 7.61618L2 15.3499C2.00185 16.8611 2.62914 18.3098 3.74424 19.3783C4.85933 20.4467 6.37115 21.0476 7.948 21.0491H16.018C17.5948 21.0474 19.1066 20.4462 20.2215 19.3776C21.3364 18.309 21.9634 16.8601 21.965 15.349V7.61522C21.9631 6.10408 21.3359 4.65535 20.2208 3.5869C19.1057 2.51845 17.5938 1.91754 16.017 1.91602ZM19.957 15.349C19.957 15.8448 19.8551 16.3358 19.6571 16.7939C19.4591 17.252 19.1689 17.6683 18.803 18.0189C18.4371 18.3695 18.0028 18.6476 17.5248 18.8374C17.0468 19.0271 16.5344 19.1248 16.017 19.1248H7.947C6.90222 19.1246 5.90032 18.7266 5.16165 18.0186C4.42297 17.3105 4.008 16.3502 4.008 15.349V7.61522C4.00827 6.61398 4.42349 5.65382 5.16235 4.94593C5.90122 4.23803 6.90322 3.84035 7.948 3.84035H16.018C17.0628 3.8406 18.0647 4.23853 18.8034 4.9466C19.542 5.65468 19.957 6.61493 19.957 7.61618V15.349Z" fill="white"/>
<path d="M11.9823 6.53516C10.6137 6.53718 9.30184 7.05916 8.33421 7.98665C7.36658 8.91415 6.82216 10.1715 6.82031 11.483C6.8219 12.7949 7.36634 14.0526 8.33421 14.9804C9.30209 15.9081 10.6144 16.4301 11.9833 16.4319C13.3524 16.4303 14.665 15.9085 15.6331 14.9807C16.6012 14.0529 17.1457 12.7951 17.1473 11.483C17.1452 10.1712 16.6003 8.91363 15.632 7.98626C14.6637 7.05889 13.3512 6.53738 11.9823 6.53611V6.53516ZM11.9823 14.5075C11.1456 14.5075 10.3431 14.189 9.75139 13.622C9.15971 13.0549 8.82731 12.2859 8.82731 11.484C8.82731 10.6821 9.15971 9.91305 9.75139 9.34602C10.3431 8.779 11.1456 8.46045 11.9823 8.46045C12.8191 8.46045 13.6216 8.779 14.2132 9.34602C14.8049 9.91305 15.1373 10.6821 15.1373 11.484C15.1373 12.2859 14.8049 13.0549 14.2132 13.622C13.6216 14.189 12.8191 14.5075 11.9823 14.5075Z" fill="white"/>
<path d="M17.1559 7.75764C17.8391 7.75764 18.3929 7.22689 18.3929 6.57218C18.3929 5.91747 17.8391 5.38672 17.1559 5.38672C16.4728 5.38672 15.9189 5.91747 15.9189 6.57218C15.9189 7.22689 16.4728 7.75764 17.1559 7.75764Z" fill="white"/>
</svg>
